<?xml version="1.0" encoding="UTF-8" standalone="no"?>
<!-- Created with Inkscape (http://www.inkscape.org/) -->

<svg
   width="163.73166mm"
   height="183.77187mm"
   viewBox="0 0 163.73166 183.77187"
   version="1.1"
   id="svg1"
   xml:space="preserve"
   sodipodi:docname="g125.svg"
   inkscape:version="1.4.4 (dcaf3e7, 2026-05-05)"
   xmlns:inkscape="http://www.inkscape.org/namespaces/inkscape"
   xmlns:sodipodi="http://sodipodi.sourceforge.net/DTD/sodipodi-0.dtd"
   xmlns="http://www.w3.org/2000/svg"
   xmlns:svg="http://www.w3.org/2000/svg"><sodipodi:namedview
     id="namedview1"
     pagecolor="#505050"
     bordercolor="#eeeeee"
     borderopacity="1"
     inkscape:showpageshadow="0"
     inkscape:pageopacity="0"
     inkscape:pagecheckerboard="0"
     inkscape:deskcolor="#505050"
     inkscape:document-units="mm"
     inkscape:zoom="1"
     inkscape:cx="113.5"
     inkscape:cy="351.5"
     inkscape:window-width="1920"
     inkscape:window-height="1057"
     inkscape:window-x="-8"
     inkscape:window-y="1246"
     inkscape:window-maximized="1"
     inkscape:current-layer="g125" /><defs
     id="defs1" /><g
     id="g125"
     transform="translate(-14.335431)"
     style="display:inline"><path
       style="fill:none;fill-opacity:1;stroke:#5fc3bf;stroke-width:0.053;stroke-linecap:round;stroke-linejoin:round;stroke-dasharray:none;stroke-opacity:1"
       d="m 49.909293,43.745671 c 0,0 67.167977,-0.134935 85.060847,-3.849418"
       id="path75" /><path
       style="fill:none;fill-opacity:1;stroke:#5fc3bf;stroke-width:0.053;stroke-linecap:round;stroke-linejoin:round;stroke-dasharray:none;stroke-opacity:1"
       d="m 44.787113,57.795879 c 0,0 12.991613,0.359034 21.590399,0.236916"
       id="path77" /><path
       style="fill:none;fill-opacity:1;stroke:#5fc3bf;stroke-width:0.053;stroke-linecap:round;stroke-linejoin:round;stroke-dasharray:none;stroke-opacity:1"
       d="m 71.867312,57.968432 c 0,0 12.009183,-0.222451 17.249452,-0.48737"
       id="path78" /><path
       style="fill:none;fill-opacity:1;stroke:#5fc3bf;stroke-width:0.053;stroke-linecap:round;stroke-linejoin:round;stroke-dasharray:none;stroke-opacity:1"
       d="m 94.49092,57.194603 c 0,0 28.49302,-1.139905 50.3448,-5.685483"
       id="path79" /><path
       style="fill:none;fill-opacity:1;stroke:#5fc3bf;stroke-width:0.053;stroke-linecap:round;stroke-linejoin:round;stroke-dasharray:none;stroke-opacity:1"
       d="m 18.587133,84.372139 c 0,0 8.60353,3.03049 19.797447,4.136912"
       id="path80" /><path
       style="fill:none;fill-opacity:1;stroke:#5fc3bf;stroke-width:0.053;stroke-linecap:round;stroke-linejoin:round;stroke-dasharray:none;stroke-opacity:1"
       d="m 16.762084,96.95944 c 0,0 10.379864,3.41503 19.914341,3.32078"
       id="path81" /><path
       style="fill:none;fill-opacity:1;stroke:#5fc3bf;stroke-width:0.053;stroke-linecap:round;stroke-linejoin:round;stroke-dasharray:none;stroke-opacity:1"
       d="m 148.21438,92.23266 c 0,0 10.68318,2.002067 24.78954,0.06164"
       id="path82"
       sodipodi:nodetypes="cc" /><path
       style="fill:none;fill-opacity:1;stroke:#5fc3bf;stroke-width:0.053;stroke-linecap:round;stroke-linejoin:round;stroke-dasharray:none;stroke-opacity:1"
       d="m 147.85801,105.68426 c 0,0 13.14618,1.10963 24.89919,0.0495"
       id="path83"
       sodipodi:nodetypes="cc" /><path
       style="fill:#5fc3bf;fill-opacity:1;stroke:#5fc3bf;stroke-width:0.226;stroke-linecap:round;stroke-linejoin:round;stroke-dasharray:none;stroke-opacity:1"
       d="m 31.978018,168.97885 c -2.450807,-3.56545 -4.402074,-6.89096 -6.312352,-10.75802 -5.333246,-10.79633 -8.181138,-22.23402 -8.877207,-35.6526 -0.25066,-4.83214 -0.01775,-14.21822 0.471072,-18.98386 0.506233,-4.935375 0.631208,-6.09121 0.662132,-6.123748 0.02004,-0.02109 0.686293,0.142041 1.480569,0.3625 4.575138,1.269881 17.274193,2.457098 17.274193,2.457098 v 0 l 3.961695,0.059 c 1.675617,0.025 -0.200518,5.33199 -0.202468,6.41692 l 0.02909,2.45037 -8.987521,-1.05813 c -3.804575,-0.44792 -6.854726,-0.1692 -8.458383,-0.47328 -0.545703,-0.10348 -1.124061,-0.18815 -1.28524,-0.18816 -0.6319,-5e-5 -2.217808,1.84313 -3.020349,3.51032 -0.912539,1.89569 -0.912697,3.22158 -7.67e-4,6.38842 1.608006,5.58405 4.699632,11.72779 6.970494,13.85192 1.168921,1.09338 0.954809,1.07255 5.493458,0.53446 2.192666,-0.25995 10.675753,-2.47034 10.821277,-2.47034 0.223133,0 0.183681,1.54308 0.366954,2.40772 1.840633,8.68372 3.58676,19.62476 13.69996,31.90537 0.779685,0.94678 0.334075,3.48363 0.311033,3.50668 -0.07126,0.0713 -2.261955,-0.48666 -3.789638,-0.91752 -8.944364,-2.52259 -16.117125,-8.42415 -20.314758,-16.71445 -0.552614,-1.0914 -1.133801,-2.3672 -1.291529,-2.8351 -0.373132,-1.10689 -0.708899,-1.46438 -1.375389,-1.46438 -0.367345,0 -0.60392,0.0918 -0.836838,0.32472 -0.398224,0.39822 -0.41552,1.01123 -0.125214,4.43778 0.607931,7.17557 2.097003,14.14597 4.180779,19.57037 0.207772,0.54086 0.838423,1.94074 0.810266,1.96889 -0.02816,0.0282 -1.039043,-1.61657 -1.655236,-2.51301 z"
       id="path84"
       sodipodi:nodetypes="csssssscsccssssssssssssssssssscc" /><path
       style="fill:#7bdcd8;fill-opacity:1;stroke:#7bdcd8;stroke-width:0.426;stroke-linecap:round;stroke-linejoin:round;stroke-dasharray:none;stroke-opacity:1"
       d="m 40.63812,100.33926 c 0,0 -15.762967,-1.31816 -19.91985,-2.371808 -1.447164,-0.366813 -2.660893,-0.666932 -2.697174,-0.666932 -0.09943,0 0.06345,-1.433971 0.578529,-5.093229 0.520387,-3.696949 1.073306,-7.215466 1.14517,-7.287332 0.026,-0.02601 0.6691,0.132144 1.429106,0.351436 4.561487,1.316169 10.164965,2.473208 14.716949,3.038834 l 3.607586,0.37664 v 0 c 0,0 2.227343,4.127912 2.014504,6.210561 -0.04462,0.436563 -0.779223,4.553723 -0.81685,4.753814 -0.07787,0.414066 -0.05797,0.688016 -0.05797,0.688016 z"
       id="path85"
       sodipodi:nodetypes="ssssssscssss" /><path
       style="fill:#5fc3bf;fill-opacity:1;stroke:#5fc3bf;stroke-width:0.226;stroke-linecap:round;stroke-linejoin:round;stroke-dasharray:none;stroke-opacity:1"
       d="m 36.787285,88.235538 c 0,0 -1.468718,-0.192413 -2.523744,-0.341017 -2.550599,-0.359259 -5.044186,-0.819517 -7.540625,-1.391824 -2.00847,-0.460442 -6.048109,-1.529363 -6.662499,-1.762956 l -0.310431,-0.118025 0.185476,-1.03586 c 5.385827,-30.079124 17.811403,-61.667507 26.601007,-67.625258 1.118603,-0.758209 1.712865,-0.945494 3.000079,-0.945494 3.10389,0 7.487933,1.467661 11.053035,3.700263 1.668965,1.04517 4.149068,2.920997 4.017446,3.038599 -0.06316,0.05644 -1.305467,0.262487 -2.760676,0.457891 -2.20862,0.29657 -2.725978,0.408084 -3.13083,0.674837 -0.653645,0.43068 -4.633262,4.676063 -6.758329,7.20966 -4.013806,4.785434 -7.007278,9.197401 -9.17803,13.527159 -1.09705,2.188159 -1.540582,3.345322 -1.42521,3.718319 0.04817,0.155741 0.468296,0.710422 0.933606,1.232622 l 0.846018,0.949457 -1.623822,2.16172 c -3.296652,4.388686 -5.849411,8.51512 -8.126637,13.136391 -1.520068,3.084742 -1.648592,3.594277 -1.048745,4.157805 0.411483,0.386569 1.151895,0.420674 1.538431,0.07087 0.155635,-0.140848 0.601694,-0.745048 0.991242,-1.342671 0.97776,-1.500012 2.671128,-3.820297 3.940001,-5.398648 1.699591,-2.114129 5.679024,-6.533049 5.679024,-6.279525 0,0.04101 -0.866878,1.400815 -1.23921,2.193126 -2.171454,4.620768 -3.626551,9.683961 -4.272918,14.86817 -0.254825,2.043814 0.730182,5.714883 0.765139,7.308339 0.02072,0.944054 0.501044,1.738428 0.123474,3.469197 -0.261903,1.200547 0.400617,2.785168 0.301769,3.330652 -0.186648,1.030009 -0.66289,1.487532 -0.66289,1.487532 z"
       id="path86"
       sodipodi:nodetypes="sssscssssssssssscssssssssssssss" /><path
       style="fill:none;fill-opacity:1;stroke:#5fc3bf;stroke-width:0.0264999;stroke-linecap:round;stroke-linejoin:round;stroke-dasharray:none;stroke-opacity:1"
       d="m 51.085056,104.41692 c -0.487328,-1.21916 -1.259718,-3.65471 -1.60656,-5.06588 -0.871771,-3.546938 -1.234083,-6.87724 -1.230546,-11.310937 0.0028,-3.527684 0.134549,-5.316611 0.652693,-8.863541 0.494773,-3.386934 0.497787,-3.422899 0.315423,-3.763651 -0.357529,-0.668049 -1.292302,-0.788863 -1.84281,-0.238172 -0.3942,0.394327 -1.127609,2.178161 -1.655738,4.02717 -1.1009,3.854309 -1.869922,9.646316 -2.007799,15.122048 -0.08752,3.475853 -0.138501,3.749397 -0.468471,2.513542 -2.745909,-10.28451 -3.03172,-20.434054 -0.823294,-29.236458 0.712978,-2.841808 1.689347,-5.551951 2.996558,-8.317653 l 0.679902,-1.43849 0.86451,0.07914 c 0.475483,0.04352 4.751583,0.120086 9.502447,0.17014 7.814596,0.08233 8.629877,0.111024 8.55337,0.301022 -1.56125,3.87727 -4.251237,11.269575 -5.94946,16.349596 -3.404378,10.183778 -5.92994,19.724232 -7.40682,27.979694 -0.18874,1.05502 -0.355785,1.96545 -0.37121,2.02317 -0.01543,0.0577 -0.106416,-0.0911 -0.202195,-0.33073 z"
       id="path87" /><path
       style="fill:#7bdcd8;fill-opacity:1;stroke:#7bdcd8;stroke-width:0.426;stroke-linecap:round;stroke-linejoin:round;stroke-dasharray:none;stroke-opacity:1"
       d="m 52.14167,57.863911 c -3.227525,-0.05673 -5.891329,-0.126243 -5.919563,-0.154479 -0.02823,-0.02823 0.358283,-0.740818 0.858928,-1.583518 0.813842,-1.369881 1.549307,-2.477416 2.997247,-4.513538 0.574815,-0.808315 0.593574,-1.291603 0.07043,-1.81474 -0.558337,-0.558337 -1.00176,-0.510463 -2.085409,0.225155 -1.174522,0.797306 -3.003547,2.278383 -4.385924,3.551555 -0.60684,0.558903 -2.375598,2.550261 -2.415677,2.510182 -0.250058,-0.250056 6.967603,-8.984859 9.496105,-11.466687 l 0.772459,-0.758201 7.208562,-0.07028 c 3.96471,-0.03866 7.960349,-0.09917 8.879202,-0.134474 l 1.670643,-0.06419 0.06478,2.0833 0.06478,2.0833 -1.289619,3.042708 c -0.70929,1.67349 -1.666015,3.980326 -2.126057,5.126302 L 65.166122,58.0099 61.588006,57.98847 C 59.62004,57.9767 55.369186,57.92064 52.141664,57.863907 Z"
       id="path88" /><path
       style="fill:#5fc3bf;fill-opacity:1;stroke:#5fc3bf;stroke-width:0.226;stroke-linecap:round;stroke-linejoin:round;stroke-dasharray:none;stroke-opacity:1"
       d="m 51.581761,43.561251 c 0.149394,-0.241726 3.708995,-3.262646 5.208984,-4.517049 2.128364,-1.779892 4.587984,-3.602982 7.172275,-5.316146 2.22042,-1.471948 6.598047,-4.155355 6.702327,-4.051077 0.02955,0.02955 -0.251777,0.972327 -0.402841,1.832319 -0.547384,3.116156 -0.941674,7.477677 -0.941674,10.416524 v 1.48967 l -3.196423,0.0873 c -5.022633,0.137187 -14.636842,0.210863 -14.542648,0.05846 z"
       id="path89" /><path
       style="fill:#5fc3bf;fill-opacity:1;stroke:#5fc3bf;stroke-width:0.226;stroke-linecap:round;stroke-linejoin:round;stroke-dasharray:none;stroke-opacity:1"
       d="m 71.702082,42.016875 c 0,-5.788668 1.243891,-13.492591 2.554836,-15.823125 0.405378,-0.720666 0.857347,-0.912952 2.27381,-0.967376 2.806867,-0.107847 7.376546,1.375114 13.471239,4.371709 1.297305,0.637852 2.507393,1.159729 2.689082,1.159729 0.458537,0 1.103741,-0.672838 1.103741,-1.151014 0,-0.539642 -0.313073,-0.916096 -1.158795,-1.393391 l -0.739727,-0.417478 0.824954,-0.758749 c 1.444075,-1.328177 4.049327,-2.447416 6.894402,-2.961892 1.667516,-0.301538 6.453886,-0.414272 8.704926,-0.205028 3.64198,0.338536 7.42778,1.017948 11.52096,2.067589 3.84314,0.985521 3.71317,0.936639 3.59857,1.353493 -0.0541,0.196688 -0.064,0.492884 -0.0221,0.658212 0.0419,0.16533 2.32961,2.952287 5.08371,6.193242 2.7541,3.240953 4.98652,5.911895 4.96094,5.935424 -0.20839,0.191659 -8.03894,1.073095 -12.94496,1.457132 -7.29043,0.570685 -28.781468,1.597073 -28.998318,1.380223 -0.03905,-0.03905 0.33274,-1.143498 0.568952,-2.42574 l 0.429477,-2.331352 -0.267994,-0.359971 c -0.525362,-0.70567 -1.40534,-0.719129 -1.912075,-0.02924 -0.157565,0.214511 -0.396629,1.177121 -0.680331,2.739388 -0.240572,1.32476 -0.324443,2.435413 -0.357875,2.468115 -0.03343,0.0327 -3.088368,0.123783 -6.617248,0.202401 -3.52888,0.07862 -7.44306,0.175159 -8.698177,0.214537 l -2.282029,0.0716 z"
       id="path90" /><path
       style="fill:#7bdcd8;fill-opacity:1;stroke:#7bdcd8;stroke-width:0.426;stroke-linecap:round;stroke-linejoin:round;stroke-dasharray:none;stroke-opacity:1"
       d="m 72.847318,56.724832 c -0.644496,-3.620225 -1.138208,-8.72868 -1.14319,-11.828613 l -0.0021,-1.273574 4.067969,-0.08979 c 2.237382,-0.04939 6.146995,-0.14561 8.68803,-0.213831 2.541034,-0.06822 4.642014,-0.102081 4.668845,-0.07525 0.02683,0.02683 -0.07153,0.904521 -0.218591,1.950424 -0.524211,3.728839 -0.934307,8.574392 -0.934307,11.04029 v 1.246245 h -0.50564 c -0.458811,0 -5.230341,0.132935 -11.88208,0.331034 l -2.531994,0.07541 z"
       id="path91" /><path
       style="fill:none;fill-opacity:1;stroke:#5fc3bf;stroke-width:0.0264999;stroke-linecap:round;stroke-linejoin:round;stroke-dasharray:none;stroke-opacity:1"
       d="M 94.243471,94.985021 C 83.788675,86.553909 76.547725,74.241873 73.372963,59.498176 l -0.320471,-1.488281 h 1.091242 c 1.472809,0 10.044896,-0.236273 12.134988,-0.334478 l 1.678204,-0.07885 0.0081,2.951718 c 0.03186,11.638841 2.585074,24.051461 7.012225,34.090453 0.300959,0.682453 0.52995,1.25807 0.508871,1.279149 -0.02109,0.02109 -0.580263,-0.398708 -1.242632,-0.932865 z"
       id="path92" /><path
       style="fill:#5fc3bf;fill-opacity:1;stroke:#5fc3bf;stroke-width:0.226;stroke-linecap:round;stroke-linejoin:round;stroke-dasharray:none;stroke-opacity:1"
       d="M 120.05469,79.458031 C 111.8244,75.808625 105.47982,70.763428 99.986694,63.499999 98.940767,62.116998 97.051205,59.270656 96.328414,57.989358 l -0.422029,-0.748141 1.226233,-0.08033 c 0.674428,-0.04419 3.071702,-0.199601 5.327272,-0.345371 4.30666,-0.278323 10.48059,-0.782251 14.30345,-1.167474 l 2.2649,-0.228232 0.41515,2.25416 c 1.23121,6.685084 2.14529,14.555496 2.3552,20.278897 0.046,1.255117 0.18222,2.366515 0.15257,2.362586 -0.0297,-0.0039 -0.95059,-0.438002 -1.89647,-0.857419 z"
       id="path93" /><path
       style="fill:#7bdcd8;fill-opacity:1;stroke:#7bdcd8;stroke-width:0.426;stroke-linecap:round;stroke-linejoin:round;stroke-dasharray:none;stroke-opacity:1"
       d="m 95.13971,55.851874 c -1.277731,-2.376895 -2.616414,-5.51775 -3.506428,-8.226875 l -0.47807,-1.455208 0.228383,-1.521354 0.228383,-1.521354 2.844271,-0.08926 c 15.992881,-0.501898 30.494471,-1.474245 37.226321,-2.496055 0.93831,-0.142425 1.78023,-0.258953 1.87093,-0.258953 0.16958,0 9.71837,11.156352 9.71837,11.354477 0,0.175697 -8.67577,1.709679 -8.82507,1.560383 -0.0424,-0.04242 -0.12541,-0.382561 -0.18442,-0.755875 -0.14171,-0.896482 -0.4089,-1.27908 -0.96627,-1.383644 -1.02516,-0.19232 -1.58587,0.550334 -1.38326,1.832084 0.0586,0.370472 0.0875,0.692589 0.0643,0.715814 -0.11676,0.116763 -10.52076,1.432274 -10.58725,1.338683 -0.0171,-0.02402 -0.22351,-0.966427 -0.45877,-2.094214 -0.23525,-1.127786 -0.79354,-3.538802 -1.24064,-5.357812 -0.69629,-2.832804 -0.86462,-3.359486 -1.17327,-3.671094 -0.5165,-0.521436 -1.33383,-0.451501 -1.79864,0.1539 -0.2607,0.339545 -0.20884,0.676167 0.61025,3.961358 0.96726,3.87945 1.66774,7.140387 1.55751,7.250623 -0.17999,0.179988 -10.50978,1.081452 -17.08785,1.491231 -2.328337,0.145045 -4.632043,0.291806 -5.119353,0.326141 l -0.886015,0.06243 z"
       id="path94" /><path
       style="fill:none;fill-opacity:1;stroke:#5fc3bf;stroke-width:0.0264999;stroke-linecap:round;stroke-linejoin:round;stroke-dasharray:none;stroke-opacity:1"
       d="m 122.59114,102.46353 c 2.4987,-12.178297 2.27887,-27.72342 -0.6256,-44.238947 -0.29274,-1.664549 -0.51501,-3.039446 -0.49395,-3.055321 0.0211,-0.01588 1.43729,-0.191137 3.14716,-0.389474 1.70987,-0.198337 4.06135,-0.495642 5.22552,-0.660675 1.91448,-0.271399 2.12547,-0.279977 2.20878,-0.0898 0.0507,0.115646 0.214,1.222298 0.36297,2.459225 2.01367,16.720275 1.84832,31.31191 -0.47371,41.802616 -0.40129,1.813006 -0.80552,3.281416 -1.5176,5.512836 l -0.15451,0.4842 -1.46974,0.0767 c -0.80835,0.0422 -2.63097,0.0938 -4.05026,0.11475 l -2.58053,0.038 z"
       id="path95" /><path
       style="fill:#5fc3bf;fill-opacity:1;stroke:#5fc3bf;stroke-width:0.226;stroke-linecap:round;stroke-linejoin:round;stroke-dasharray:none;stroke-opacity:1"
       d="m 144.87009,79.076748 c 0,0 -3.98489,-2.547295 -7.2966,-2.764325 l -1.37289,-0.06199 0.005,-0.566079 c 0.003,-0.300612 -0.0972,-1.802551 -0.13644,-3.342378 -0.11621,-4.563219 -0.72904,-12.015999 -1.39062,-16.911772 -0.13766,-1.018646 -0.32705,-1.889752 -0.27797,-1.935793 0.0491,-0.04604 0.7122,-0.155172 1.33066,-0.242519 0.61847,-0.08735 2.57456,-0.421749 4.34687,-0.743114 1.77231,-0.321369 3.45234,-0.613537 3.54045,-0.613537 0.0881,0 0.67811,0.829585 1.50404,1.807792 1.60867,1.905267 1.7607,2.184238 2.5923,4.756623 1.69998,5.258575 2.2396,11.089294 1.56224,16.880443 -0.2738,2.340859 -0.20822,4.187092 -0.38347,4.173815 -0.0817,-0.0062 -2.91082,1.193847 -2.91082,1.193847 z"
       id="path96"
       sodipodi:nodetypes="sccccsssssssssss" /><path
       style="fill:#5fc3bf;fill-opacity:1;stroke:#5fc3bf;stroke-width:0.226;stroke-linecap:round;stroke-linejoin:round;stroke-dasharray:none;stroke-opacity:1"
       d="m 155.64114,92.540195 c -1.74625,-0.05361 -3.86322,-0.141997 -4.70438,-0.196414 l -6.265,-0.09031 0.0411,-3.645681 c 0.0173,-1.531301 0.0474,-2.544216 0.19594,-5.005961 0.0798,-1.323691 2.58508,-3.315111 3.43965,-4.599173 3.89037,-5.845643 4.00256,-13.112934 2.0039,-20.056804 -0.25905,-0.900018 -0.45496,-1.646973 -0.43536,-1.659906 0.3815,-0.251706 7.00172,-5.618882 7.21246,-5.847321 0.19859,-0.215281 0.29765,-0.488048 0.29765,-0.819637 0,-0.470389 -0.57326,-1.146722 -10.71562,-12.642315 -5.8936,-6.679935 -10.86764,-12.203379 -10.86764,-12.260027 0,-0.236727 2.98232,-2.756554 4.57964,-3.948515 4.41,-3.290872 9.15547,-5.65592 14.19887,-7.07643 l 1.09784,-0.309218 1.0361,2.069172 c 1.81206,3.618859 3.69891,9.268235 5.56117,14.009495 7.80766,19.878098 10.15743,39.931098 10.61174,58.739828 l 0.0747,3.093319 v 0 c 0,0 -11.08919,0.438486 -17.36273,0.245888 z"
       id="path97"
       sodipodi:nodetypes="sscscssssssssscssscsss" /><path
       style="fill:#7bdcd8;fill-opacity:1;stroke:#7bdcd8;stroke-width:0.426;stroke-linecap:round;stroke-linejoin:round;stroke-dasharray:none;stroke-opacity:1"
       d="m 150.51585,105.67661 -1.28884,-0.0513 -0.46462,-0.72633 c -0.51345,-0.80265 -4.68159,-0.84362 -4.68159,-0.84362 l 0.0959,-0.69662 0.11565,-1.09086 c 0.23554,-2.22157 -2.62303,-10.091979 0.37941,-10.014404 l 4.72037,0.121961 -4.72037,-0.121961 c 0,0 18.9993,0.613646 24.06624,0.285031 2.5741,-0.166941 3.92419,-0.143565 4.26592,-0.24421 0.24263,-0.07146 0.10198,-0.455952 0.0207,4.928891 -0.046,3.045792 -0.1173,5.391342 -0.1479,6.027302 l -0.11947,2.48327 v 4e-5 c 0,0 -4.32944,-0.0716 -12.08899,-0.0409 -4.87495,0.0192 -9.44352,0.0119 -10.15238,-0.0163 z"
       id="path98"
       sodipodi:nodetypes="ccsscsscssssscsccc" /><path
       style="fill:#5fc3bf;fill-opacity:1;stroke:#5fc3bf;stroke-width:0.150614;stroke-linecap:round;stroke-linejoin:round;stroke-dasharray:none;stroke-opacity:1"
       d="m 122.24888,103.96546 c 0.0349,-0.12238 0.1569,-0.85154 0.36741,-1.93198 1.26056,-6.469775 1.73967,-14.116612 1.53027,-21.806668 -0.20954,-7.695208 -0.72389,-13.39015 -2.24189,-22.349976 -0.30293,-1.787988 -0.59312,-2.624217 -0.51331,-2.674993 0.0597,-0.03799 0.48096,-0.05524 0.63297,-0.05602 0.34889,-0.0019 4.37818,-0.615411 7.55877,-1.041922 2.1487,-0.288134 2.54401,-0.344148 2.63532,-0.219276 0.11685,0.159806 0.47794,2.067335 0.80852,5.074732 1.71476,15.599751 1.22396,28.972502 -0.89547,38.987071 -0.37232,1.759217 -0.6532,3.026562 -1.65401,5.753312 l -0.26608,0.72497 -1.26331,0.006 c -0.43301,0.002 -2.00609,0.10067 -3.7761,0.078 l -3.089,0.0384 z"
       id="path103" /><path
       style="fill:#5fc3bf;fill-opacity:1;stroke:#5fc3bf;stroke-width:0.226;stroke-linecap:round;stroke-linejoin:round;stroke-dasharray:none;stroke-opacity:1"
       d="m 129.20661,172.43796 c 0.0447,-0.10914 1.24665,-2.61279 2.18601,-4.7956 7.50809,-17.44659 9.03523,-32.12149 12.44648,-47.75268 0.33346,-1.52797 0.30849,-3.35198 0.34153,-3.46376 0.0451,-0.15247 -0.86796,0.0202 0.84405,-0.25967 1.25515,-0.20521 2.43898,-0.45406 2.63074,-0.55301 0.46363,-0.23922 1.35229,-1.26195 1.8209,-2.09562 0.68739,-1.22289 0.87248,-1.98882 0.8659,-3.58325 -0.006,-1.41242 -0.59716,-2.3478 -1.2882,-3.94937 -0.0757,-0.17545 1.27729,-0.14689 8.73536,-0.11043 7.51006,0.0367 11.23414,0.12351 14.96782,-0.14077 l -0.0488,0.84621 v 0 c -0.27295,3.50689 -0.0433,2.74284 -0.56211,6.91682 l -0.77767,6.2567 -0.56829,3.56148 -0.3508,1.94004 -0.60791,3.02252 -0.96234,4.14086 -2.47354,8.40409 c -3.44046,11.68929 -7.12877,16.53276 -14.76888,26.06345 -1.52315,1.90005 -1.99607,2.7357 -2.0485,2.68327 -0.0236,-0.0236 0.008,-3.82525 0.26243,-5.01569 1.4144,-6.61959 -0.0355,-8.75765 -0.34527,-15.90469 -0.0903,-2.0842 -0.23633,-4.48858 -0.32442,-5.34306 -0.17903,-1.73668 -0.33754,-2.03416 -1.1546,-2.16675 -0.72972,-0.11841 5.23845,-3.0388 4.44953,-1.16018 -0.85187,2.02852 -2.92413,6.13476 -4.31353,8.54738 -4.01116,6.96512 -7.492,14.23814 -13.11906,20.18789 -1.96325,2.07583 -5.97103,4.05175 -5.83679,3.72382 z"
       id="path99"
       sodipodi:nodetypes="ccssssscsscccscccccssssssssssc" /><path
       style="fill:#5fc3bf;fill-opacity:1;stroke:#5fc3bf;stroke-width:0.600001;stroke-linecap:round;stroke-linejoin:round;stroke-dasharray:none;stroke-opacity:1"
       d="M 94.371492,94.970604 C 84.416555,86.940077 77.362285,75.419976 74.007029,61.714062 c -0.400772,-1.63711 -0.755578,-3.104655 -0.788463,-3.261215 -0.05769,-0.274664 -0.0076,-0.287292 1.427749,-0.35987 0.818145,-0.04137 3.005585,-0.107566 4.860976,-0.147106 1.85539,-0.03954 4.489648,-0.110117 5.853906,-0.156839 l 2.480469,-0.08495 0.0024,1.442749 c 0.01916,12.25005 2.437016,24.724995 6.738281,34.766131 0.370692,0.865362 1.280757,2.323002 1.250631,2.35313 -0.03013,0.03013 -1.035014,-0.951577 -1.46134,-1.29549 z"
       id="path100" /><path
       style="fill:#5fc3bf;fill-opacity:1;stroke:#5fc3bf;stroke-width:0.600001;stroke-linecap:round;stroke-linejoin:round;stroke-dasharray:none;stroke-opacity:1"
       d="m 51.013256,103.98125 c -0.247409,-0.94712 -1.49438,-4.686677 -1.787363,-6.151564 -1.078572,-5.392737 -1.199534,-11.817339 -0.337506,-17.92552 0.18483,-1.309688 0.371769,-2.844475 0.415417,-3.410636 0.07339,-0.951883 0.05626,-1.053973 -0.22747,-1.355989 -0.437187,-0.465363 -1.284822,-0.457039 -1.759132,0.01728 -0.776748,0.776748 -2.024034,4.813856 -2.67307,8.651957 -0.57377,3.393006 -0.784979,5.725065 -1.072338,11.840104 -0.0491,1.044768 0.209741,3.365571 0.147561,3.199834 -0.239556,-0.63854 -1.423789,-6.339298 -1.783072,-8.470699 -1.544095,-9.160126 -1.086424,-17.832816 1.344364,-25.475194 0.817922,-2.571539 2.779112,-7.10683 3.011178,-6.963405 0.06772,0.04185 4.160745,0.134969 9.095602,0.20692 4.934858,0.07195 9.102209,0.160512 9.260784,0.196805 l 0.288317,0.06599 -0.336997,0.826649 c -1.245354,3.054813 -4.198533,11.278152 -5.902905,16.437056 -3.397152,10.282717 -5.568902,18.632154 -7.329336,28.178132 l 0.04338,1.65364 z"
       id="path101" /><path
       style="fill:#5fc3bf;fill-opacity:1;stroke:#5fc3bf;stroke-width:0.0750001;stroke-linecap:round;stroke-linejoin:round;stroke-dasharray:none;stroke-opacity:1"
       d="M 88.023567,25.869206 C 86.600013,24.902858 85.41097,23.935354 84.256813,22.804264 83.076216,21.647262 82.210427,20.598941 81.53016,19.502759 79.933135,16.929315 79.589441,14.506524 80.487712,12.154297 80.7844,11.377389 81.410129,10.311677 82.002364,9.5746093 83.503327,7.7065877 85.807567,5.898121 88.85039,4.1999807 c 0.560398,-0.3127468 1.48894,-0.8588774 1.501695,-0.844586 0.0059,0.00661 -0.180962,0.4074763 -0.315214,0.7621834 -1.803236,4.7643001 -3.070534,9.6098979 -3.433955,13.1299479 -0.129697,1.256216 -0.164913,2.770526 -0.08576,3.68763 0.196016,2.271129 0.808688,3.88618 1.935255,5.101497 0.122248,0.131878 0.618969,0.502172 0.603623,0.501317 -0.01535,-7.94e-4 -0.705049,-0.446501 -1.03247,-0.668764 z"
       id="path102" /><path
       style="fill:none;fill-opacity:1;stroke:#ff6eac;stroke-width:0.939;stroke-linecap:round;stroke-linejoin:round;stroke-dasharray:none;stroke-opacity:1"
       d="m 127.76905,24.721262 c 0,0 13.84775,17.735615 24.89064,28.826742"
       id="path104" /><path
       style="fill:none;fill-opacity:1;stroke:#ff6eac;stroke-width:0.939;stroke-linecap:round;stroke-linejoin:round;stroke-dasharray:none;stroke-opacity:1"
       d="m 43.634829,48.266238 c 0,0 11.861524,-16.946186 18.740691,-20.584207 l 15.606493,-4.590324"
       id="path105" /><path
       style="opacity:1;fill:#3b3b3b;fill-opacity:1;stroke:#3b3b3b;stroke-width:0.627402;stroke-linecap:round;stroke-linejoin:round;stroke-dasharray:none;stroke-opacity:1"
       d="m 165.98688,177.14746 c -0.19051,-0.25872 -0.15719,-0.37015 0.66073,-2.20996 8.44984,-19.00691 23.77518,-41.44401 43.15919,-63.18732 4.49136,-5.03803 9.36291,-10.19404 13.97013,-14.785888 l 3.17129,-3.160707 28.61102,-3.995543 c 15.73606,-2.197548 28.73572,-3.995542 28.88813,-3.995542 0.15241,0 0.51822,0.136951 0.81291,0.304337 0.61104,0.347079 0.74457,0.275884 -1.19232,0.635724 -3.19815,0.59416 -5.94425,1.856055 -8.09304,3.718931 l -0.71258,0.617766 -20.15902,5.930667 c -19.38084,5.701725 -20.20259,5.955435 -21.28743,6.572275 -11.6385,6.61767 -28.14136,23.19986 -48.67385,48.9078 -4.97976,6.23498 -12.49234,16.08601 -16.82527,22.0625 -1.02179,1.40937 -1.91888,2.62886 -1.99353,2.70996 -0.10259,0.11144 -0.18474,0.0809 -0.33636,-0.125 z"
       id="path106"
       transform="scale(0.26458333)" /><path
       style="opacity:1;fill:#3b3b3b;fill-opacity:1;stroke:#3b3b3b;stroke-width:0.627402;stroke-linecap:round;stroke-linejoin:round;stroke-dasharray:none;stroke-opacity:1"
       d="m 168.83245,180.34479 c -0.11027,-0.17844 5.30529,-7.58363 10.902,-14.90729 22.95592,-30.03935 42.18794,-50.36244 54.95305,-58.07067 l 1.625,-0.98126 17.93483,-5.27879 c 9.86416,-2.903328 17.94761,-5.266003 17.96323,-5.250385 0.0156,0.01562 -0.27206,0.729318 -0.63928,1.586 -0.36723,0.856683 -0.8173,1.97948 -1.00017,2.495105 l -0.3325,0.9375 -3.65055,1.8406 c -23.90058,12.05059 -47.33006,28.24193 -67.77556,46.83743 -9.14113,8.314 -18.58155,17.95536 -26.62546,27.19219 -3.36858,3.86814 -3.26037,3.75202 -3.35459,3.59957 z"
       id="path107"
       transform="scale(0.26458333)" /><path
       style="opacity:1;fill:#3b3b3b;fill-opacity:1;stroke:#3b3b3b;stroke-width:0.627402;stroke-linecap:round;stroke-linejoin:round;stroke-dasharray:none;stroke-opacity:1"
       d="m 563.08584,206.40722 c -0.40889,-0.4748 -0.99586,-1.25037 -1.30437,-1.72348 -0.30852,-0.47312 -0.98047,-1.25796 -1.49323,-1.74409 -0.51276,-0.48614 -19.56901,-22.83447 -42.34721,-49.66297 l -41.41492,-48.77908 1.31356,-1.21358 c 1.59319,-1.47192 5.62151,-4.881419 6.02122,-5.096254 0.23318,-0.12533 0.85781,0.561692 3.26991,3.596494 27.12742,34.13071 57.4199,69.46399 78.36046,91.4 2.48886,2.60716 5.05891,5.31818 5.71123,6.02449 l 1.18604,1.2842 -4.20907,3.38886 c -2.31498,1.86388 -4.24081,3.38883 -4.27962,3.38878 -0.0388,-5e-5 -0.40512,-0.38856 -0.814,-0.86337 z"
       id="path108"
       transform="scale(0.26458333)" /><path
       style="opacity:1;fill:#3b3b3b;fill-opacity:1;stroke:#3b3b3b;stroke-width:0.627402;stroke-linecap:round;stroke-linejoin:round;stroke-dasharray:none;stroke-opacity:1"
       d="m 574.14368,196.85841 c -0.61711,-0.67094 -2.79256,-2.95986 -4.83433,-5.0865 -20.22276,-21.06332 -49.00628,-54.52539 -76.91609,-89.4182 -2.72193,-3.402955 -5.00444,-6.278612 -5.07225,-6.390353 -0.23586,-0.388654 8.16853,-5.365779 8.70343,-5.154215 0.25864,0.102301 88.22833,99.915518 88.18126,100.053268 -0.0444,0.1299 -8.77036,7.21588 -8.88594,7.21588 -0.0297,0 -0.55897,-0.54895 -1.17608,-1.21988 z"
       id="path109"
       transform="scale(0.26458333)" /><path
       style="opacity:1;fill:#3b3b3b;fill-opacity:1;stroke:#3b3b3b;stroke-width:0.627402;stroke-linecap:round;stroke-linejoin:round;stroke-dasharray:none;stroke-opacity:1"
       d="m 501.89995,393.79664 c 8.01577,-25.24313 11.65817,-50.08904 12.62889,-86.14548 0.15771,-5.85814 0.30012,-10.66911 0.31645,-10.69104 0.0163,-0.0219 1.43596,0.0609 3.15471,0.1841 13.94426,0.99948 16.25767,-1.03523 26.86737,4.38122 l 2.9609,6.5668 v 0 c 0,0 -0.34095,10.87033 -0.97543,18.29791 -1.9588,22.93088 5.04141,48.30937 -7.62515,57.85894 l -1.45953,4.6957 -3.47875,9.0155 c -0.63553,1.64702 -25.44333,-3.85467 -28.98868,-3.73632 l -3.57431,0.11932 z"
       id="path110"
       transform="scale(0.26458333)"
       sodipodi:nodetypes="ssssscssscsscs" /><path
       style="opacity:1;fill:none;fill-opacity:1;stroke:#f1c1aa;stroke-width:0.166;stroke-linecap:round;stroke-linejoin:round;stroke-dasharray:none;stroke-opacity:1"
       d="m 54.202829,106.75255 c 0,0 9.968585,-36.033035 15.300611,-47.445443 l 2.592234,-0.07795"
       id="path111" /><path
       style="opacity:1;fill:none;fill-opacity:1;stroke:#f1c1aa;stroke-width:0.166;stroke-linecap:round;stroke-linejoin:round;stroke-dasharray:none;stroke-opacity:1"
       d="m 98.015257,98.158108 c 0,0 2.521513,1.794013 3.807753,2.355282 0,0 -10.07874,-21.733703 -9.814157,-40.651412 0,0 7.661243,18.935941 31.115777,25.938284"
       id="path112" /><path
       style="opacity:1;fill:#f1c2ab;fill-opacity:1;stroke:#f1c2ab;stroke-width:1.28882;stroke-linecap:round;stroke-linejoin:round;stroke-dasharray:none;stroke-opacity:1"
       d="m 205.9007,391.1875 c -1.08923,-5.46644 -1.09112,-6.02444 -0.0383,-11.3125 8.83823,-44.39409 25.31265,-97.79419 47.96841,-155.45592 2.8273,-7.19582 9.84486,-24.39722 10.24464,-25.11159 0.10304,-0.18413 0.26624,1.67567 0.51118,3.63326 0.74831,5.98043 2.81667,18.62533 3.31045,20.23843 0.11791,0.38522 -0.15742,0.43643 -2.6882,0.5 l -2.81957,0.0708 -1.40945,3.125 c -9.9949,22.16037 -27.37236,75.09221 -47.58667,144.94919 -1.72269,5.95331 -3.88842,13.51893 -4.81274,16.8125 -0.92432,3.29357 -1.75127,6.40815 -1.83767,6.40815 -0.0864,0 -0.46531,-1.96672 -0.84204,-3.85734 z"
       id="path113"
       transform="scale(0.26458333)" /><path
       style="opacity:1;fill:#f1c2ab;fill-opacity:1;stroke:#f1c2ab;stroke-width:1.28882;stroke-linecap:round;stroke-linejoin:round;stroke-dasharray:none;stroke-opacity:1"
       d="m 381.11551,377.39281 c -1.36978,-0.80273 -2.67925,-1.6695 -2.90993,-1.92616 -1.36914,-1.52332 -7.82582,-13.9864 -11.05636,-21.34165 -15.04699,-34.25887 -23.71841,-73.04639 -25.67057,-114.82527 -0.49642,-10.62397 -0.0549,-36.69296 0.72199,-42.63277 l 0.10807,-1.68659 1.42503,3.56159 c 10.38823,25.96339 26.9697,49.76007 46.14032,68.96586 19.27031,19.30567 41.86903,34.0497 67.25094,43.87637 l 3.75,1.45182 0.0679,4.76949 c 0.0373,2.62323 0.23525,4.84763 0.17235,4.84763 -0.0629,0 -1.94341,-0.62666 -3.91165,-1.29709 -18.5438,-6.31645 -36.77784,-15.82828 -52.43073,-27.35062 C 382.92192,277.7206 363.84349,255.99841 351.80708,233.5 c -1.10341,-2.0625 -2.38328,-4.61973 -2.84414,-5.68273 -0.62284,-1.43659 -0.96051,-1.93396 -1.31542,-1.9375 -0.46249,-0.005 -0.47216,0.20852 -0.30804,6.78884 0.47582,19.078 2.85536,37.3007 7.69631,58.93892 5.89165,26.33465 15.8228,56.91319 26.85442,82.68619 1.03436,2.41656 1.84357,4.43084 1.79823,4.47617 -0.0453,0.0453 -1.20316,-0.57435 -2.57293,-1.37708 z"
       id="path114"
       transform="scale(0.26458333)" /><path
       style="opacity:1;fill:#f1c2ab;fill-opacity:1;stroke:#f1c2ab;stroke-width:1.28882;stroke-linecap:round;stroke-linejoin:round;stroke-dasharray:none;stroke-opacity:1"
       d="m 350.05048,477.45149 c 1.77236,-1.37124 3.93961,-3.4298 4.99695,-4.35415 1.59857,-1.3975 2.14609,-1.72499 3.25,-1.94389 0.73016,-0.14479 25.62757,-4.37466 55.32757,-9.39973 29.7,-5.02506 23.85885,-6.54582 38.65022,-6.76208 l 1.30842,-2.30855 v 0 c 0,0 -13.69517,8.00771 -20,10.69298 -25.22501,10.74352 -43.24637,16.74893 -78.23437,16.74893 l -8.92574,0.13258 z"
       id="path115"
       transform="scale(0.26458333)"
       sodipodi:nodetypes="ssssccssccs" /><path
       style="opacity:1;fill:#ffe4d0;fill-opacity:1;stroke:#ffe4d0;stroke-width:0.455666;stroke-linecap:round;stroke-linejoin:round;stroke-dasharray:none;stroke-opacity:1"
       d="m 321.49757,411.07566 c -4.7617,-1.69032 -7.29869,-5.53354 -8.21466,-12.44421 -0.30126,-2.27282 -0.50339,-2.78785 -1.41484,-3.60497 -1.38734,-1.24376 -3.09085,-1.55427 -4.74206,-0.86435 -1.36893,0.57197 -2.71302,2.37418 -2.71522,3.64064 -0.001,0.64408 -0.26181,0.7948 -1.6807,0.97172 -5.82321,0.72607 -69.93729,5.42817 -87.65081,6.42827 l -4.30059,0.24281 -0.87048,-1.72768 c -0.47877,-0.95023 -1.28123,-2.872 -1.78327,-4.27061 l -0.91278,-2.54292 3.71842,-13.01343 c 21.35158,-74.72448 40.55014,-133.76251 50.98256,-156.7779 l 1.06209,-2.34312 2.42073,-0.16635 c 1.3314,-0.0915 2.47898,-0.11905 2.55018,-0.0612 0.0712,0.0578 0.74361,2.83084 1.49425,6.16226 13.26271,58.86177 43.63906,107.44677 88.00209,140.75362 6.12134,4.59578 14.47643,10.16412 15.79869,10.52922 2.55488,0.70543 5.41451,-1.24301 5.41451,-3.68925 v -1.18712 l 2.74004,1.56518 c 2.4055,1.37408 3.97747,1.92871 3.97747,1.40335 0,-0.0919 -1.21243,-2.99545 -2.6943,-6.45235 -5.41315,-12.62781 -11.75636,-29.74297 -16.20176,-43.71541 -11.11237,-34.92748 -17.29973,-67.15127 -18.07704,-94.14529 l -0.20207,-7.0175 2.43784,4.5962 c 13.75337,25.92992 36.18806,50.22 61.96095,67.08521 13.08687,8.56377 28.1839,15.99667 43.03707,21.18893 l 5.38364,1.88197 -0.18195,4.5962 c -0.78272,19.77222 -2.03881,32.98635 -4.57065,48.08326 -0.9727,5.80004 -3.61343,18.97547 -3.83492,19.13361 -0.0321,0.0229 -14.69555,0.37068 -32.58535,0.77273 -29.57422,0.66465 -32.55901,0.68046 -32.88047,0.17418 -3.03111,-4.77385 -6.04956,-8.33351 -9.13364,-10.77134 -1.33279,-1.05351 -2.02411,-1.35423 -3.11325,-1.35423 -2.82298,0 -4.54689,1.74349 -4.54689,4.59852 0,1.36505 0.22967,1.69127 3.84999,5.46837 2.87356,2.998 4.17374,4.66386 5.12652,6.56836 1.52919,3.05665 1.71127,5.34413 0.54357,6.82862 -2.61117,3.31956 -11.25455,5.0448 -18.05399,3.60361 -5.58538,-1.18387 -11.95413,-4.83949 -17.20439,-9.87522 -1.69197,-1.62283 -3.42382,-3.13209 -3.84856,-3.35391 -1.5549,-0.81207 -3.75806,-0.27104 -5.14728,1.26403 -0.34761,0.38411 -0.83702,1.95331 -1.12668,3.61251 -0.67703,3.87814 -1.97876,6.50305 -3.83404,7.73125 -1.22047,0.80796 -1.8791,0.96866 -4.29621,1.04828 -2.06492,0.068 -3.36024,-0.0854 -4.68176,-0.55452 z m -73.54501,-64.47035 c 0.42473,-0.22404 1.6433,-1.19963 2.70792,-2.16796 4.36037,-3.96601 8.81958,-6.63139 12.64525,-7.55838 3.18578,-0.77194 9.9494,-0.75256 13.70335,0.0393 5.82306,1.22826 12.81058,4.00875 19.62221,7.80814 1.84827,1.03093 2.56026,1.24797 3.6374,1.10879 2.72889,-0.35258 4.43613,-2.57033 3.96853,-5.15523 -0.45943,-2.53973 -6.92399,-7.73196 -13.67113,-10.98044 -8.67295,-4.17568 -17.73851,-5.1654 -26.39922,-2.88211 l -2.58916,0.6826 -1.16373,-1.82253 c -2.80089,-4.38652 -4.52899,-8.84859 -5.15216,-13.30325 -0.3951,-2.82435 -0.25462,-4.65366 0.60242,-7.84494 0.65643,-2.44425 0.25186,-4.05814 -1.35653,-5.41151 -1.24552,-1.04804 -3.2904,-1.19698 -4.91311,-0.35784 -2.13193,1.10247 -3.32134,5.12278 -3.29271,11.12965 0.0295,6.18472 1.6753,11.98405 5.13475,18.09327 0.73506,1.29808 1.3802,2.51507 1.43364,2.70443 0.0534,0.18935 -1.09607,1.1286 -2.55448,2.08723 -5.03541,3.30982 -8.83884,7.49998 -8.83884,9.73755 0,1.46346 0.89762,3.17504 2.03494,3.88021 1.12351,0.69661 3.32381,0.80218 4.44066,0.21307 z m 146.01755,-2.1195 c 0.42473,-0.22303 2.40183,-1.96984 4.39354,-3.8818 4.95044,-4.75219 8.74211,-6.52927 15.79237,-7.40156 7.97594,-0.98681 16.28042,0.37864 28.38997,4.66799 4.23412,1.49978 4.34531,1.51896 5.8221,1.00457 2.78593,-0.9704 3.94437,-4.11716 2.43,-6.60077 -0.37781,-0.61963 -1.84888,-1.94282 -3.26904,-2.94042 -13.30929,-9.34921 -28.43681,-11.23875 -41.67502,-5.20552 -1.44451,0.65832 -3.31985,1.63476 -4.16741,2.16985 -1.88382,1.18931 -2.31111,1.10471 -5.73828,-1.13615 -3.2769,-2.14261 -5.95549,-5.05069 -7.45194,-8.09042 -1.05599,-2.14502 -1.17113,-2.71079 -1.34723,-6.61991 -0.20873,-4.63361 -0.51695,-5.56186 -2.12245,-6.3921 -2.46172,-1.273 -5.78202,-0.11541 -6.61625,2.30669 -0.67691,1.96535 -0.55698,7.28105 0.23407,10.374 1.47021,5.7485 5.44272,11.37259 10.57817,14.9761 1.28572,0.90218 2.39976,1.68583 2.47564,1.74145 0.0759,0.0556 -0.42893,0.72862 -1.12181,1.49555 -2.48278,2.74814 -3.25149,4.57878 -2.71224,6.45905 0.78145,2.72475 3.83894,4.26376 6.10581,3.0734 z"
       id="path116"
       transform="scale(0.26458333)" /><path
       style="opacity:1;fill:none;fill-opacity:1;stroke:#457853;stroke-width:0.341;stroke-linecap:round;stroke-linejoin:round;stroke-dasharray:none;stroke-opacity:1"
       d="m 24.720967,128.1311 49.29622,-5.36443 -2.867639,3.11373"
       id="path118" /><path
       style="opacity:1;fill:none;fill-opacity:1;stroke:#457853;stroke-width:0.341;stroke-linecap:round;stroke-linejoin:round;stroke-dasharray:none;stroke-opacity:1"
       d="m 65.044134,145.1018 26.068046,-24.05543 19.76737,-2.42819"
       id="path119" /><path
       style="opacity:1;fill:none;fill-opacity:1;stroke:#d3bd9f;stroke-width:0.341;stroke-linecap:round;stroke-linejoin:round;stroke-dasharray:none;stroke-opacity:1"
       d="m 110.87955,118.61818 37.70751,-5.94202"
       id="path120" /><path
       style="opacity:1;fill:#457853;fill-opacity:1;stroke:#477b55;stroke-width:1.07717;stroke-linecap:round;stroke-linejoin:round;stroke-dasharray:none;stroke-opacity:1"
       d="m 252.18272,546.94599 c -1.20575,-0.64202 -2.162,-1.23991 -2.125,-1.32864 0.037,-0.0887 21.34748,-19.79655 47.35662,-43.79514 l 47.28934,-43.63381 1.33566,-0.1592 c 0.73461,-0.0876 16.00495,-1.95807 33.93409,-4.1567 17.92914,-2.19863 32.69477,-3.9975 32.8125,-3.9975 0.11774,0 0.21407,0.45739 0.21407,1.01643 0,0.55904 0.11176,1.22527 0.24836,1.4805 0.20899,0.39051 0.13965,0.48642 -0.4375,0.60513 -0.37723,0.0776 -13.67961,2.34013 -29.56086,5.02788 -15.88125,2.68775 -29.22904,5.00045 -29.66175,5.13933 -0.45006,0.14445 -5.69251,4.49701 -12.25,10.17062 -6.30479,5.45496 -27.32575,23.64183 -46.71325,40.41526 -19.3875,16.77344 -36.25818,31.37414 -37.4904,32.446 -1.23223,1.07187 -2.35723,1.94622 -2.5,1.943 -0.14278,-0.003 -1.24613,-0.53114 -2.45188,-1.17316 z"
       id="path121"
       transform="scale(0.26458333)" /><path
       style="opacity:1;fill:#619f72;fill-opacity:1;stroke:#619f72;stroke-width:1.07717;stroke-linecap:round;stroke-linejoin:round;stroke-dasharray:none;stroke-opacity:1"
       d="m 245.09757,542.6766 c -4.18165,-2.79498 -7.53421,-5.49466 -10.47304,-8.43348 -2.37678,-2.37678 -5.40003,-6.09442 -6.54522,-8.04854 l -0.63885,-1.09011 1.59227,-1.67401 c 0.87575,-0.9207 10.92977,-11.33541 22.34227,-23.14379 11.4125,-11.80838 21.00255,-21.87859 21.31122,-22.37823 0.66344,-1.07391 0.7366,-2.63587 0.18527,-3.95541 -0.34731,-0.83122 -0.34216,-0.94763 0.0625,-1.4121 0.24255,-0.27841 2.04792,-2.25282 4.01192,-4.38758 1.97968,-2.1518 3.5384,-4.05337 3.49795,-4.26736 -0.11012,-0.5826 -1.15252,-0.58758 -6.2165,-0.0297 -2.5313,0.27887 -27.38361,2.98502 -55.22736,6.01367 -58.40834,6.35324 -78.14323,8.50476 -103,11.22913 -16.476866,1.80592 -17.907447,1.92755 -18.289821,1.55502 C 96.892,481.85703 92.930737,474.91101 90.636194,470.25 83.76198,456.28609 77.449169,438.01 77.068366,430.97006 c -0.116721,-2.15783 -0.05497,-2.79949 0.419826,-4.36267 0.744669,-2.45166 2.132779,-5.14734 3.996256,-7.76065 2.434144,-3.4136 2.244723,-3.30616 5.038842,-2.85818 8.368465,1.34171 18.70346,1.72939 41.60171,1.56057 29.36388,-0.2165 62.60223,-1.74495 112.75,-5.18477 19.00115,-1.30335 59.16563,-4.37051 63.90943,-4.88043 l 1.40942,-0.15151 0.65112,1.42222 c 2.7488,6.00419 7.86989,10.02483 14.51563,11.39644 4.45336,0.91913 8.77012,0.49792 12.3894,-1.20888 2.40332,-1.13339 5.44865,-4.11889 6.76925,-6.63632 l 0.8887,-1.69411 1.64072,1.24205 c 2.74348,2.07686 5.11453,3.51431 8.29378,5.02807 5.81145,2.76704 9.55162,3.61399 15.90755,3.6022 3.8161,-0.007 4.7263,-0.0909 7.125,-0.65609 8.17747,-1.92686 12.61897,-5.29928 14.3776,-10.91684 0.27357,-0.87385 0.4974,-1.95751 0.4974,-2.40812 v -0.8193 l 1.8125,-0.14805 c 0.99687,-0.0814 6.32695,-0.22174 11.84462,-0.31179 l 10.03215,-0.16374 0.87095,1.59492 c 0.47903,0.8772 1.5988,3.00117 2.48843,4.71992 l 1.6175,3.125 -2.7696,4.625 -2.7696,4.625 -9.8e-4,1.75 -9.7e-4,1.75 3.94862,5.97049 3.94865,5.9705 -0.63577,0.9045 c -2.22855,3.17051 -5.8207,7.88758 -6.1365,8.05819 -0.20625,0.11142 -15.675,2.06384 -34.375,4.3387 -18.7,2.27486 -34.2983,4.2197 -34.6629,4.32186 -0.38063,0.10666 -20.90503,18.86877 -48.1993,44.06076 -26.14501,24.13125 -47.61545,43.90137 -47.71209,43.93361 -0.0966,0.0322 -1.65056,-0.92717 -3.45314,-2.13201 z"
       id="path122"
       transform="scale(0.26458333)" /><path
       style="opacity:1;fill:#457853;fill-opacity:1;stroke:#477b55;stroke-width:1.07717;stroke-linecap:round;stroke-linejoin:round;stroke-dasharray:none;stroke-opacity:1"
       d="m 102.71396,488.9375 c -1.65266,-1.69265 -3.79884,-4.31095 -3.653088,-4.45671 0.04281,-0.0428 3.731008,-0.47542 8.195988,-0.96135 4.46498,-0.48594 24.14939,-2.62723 43.74314,-4.75843 19.59375,-2.1312 55.81875,-6.07424 80.5,-8.76231 24.68125,-2.68807 45.15625,-4.8562 45.5,-4.81805 0.56699,0.0629 0.3346,0.38259 -2.50389,3.44435 l -3.12888,3.375 -1.01078,-0.35081 c -0.94385,-0.32758 -6.4644,0.28921 -83.37111,9.31483 -45.29819,5.31611 -82.41961,9.6646 -82.49205,9.66331 -0.0724,-10e-4 -0.87313,-0.76171 -1.77933,-1.68983 z"
       id="path123"
       transform="scale(0.26458333)" /><path
       style="opacity:1;fill:#fff7d9;fill-opacity:1;stroke:#fff7d9;stroke-width:1.45512;stroke-linecap:round;stroke-linejoin:round;stroke-dasharray:none;stroke-opacity:1"
       d="m 426.18417,446.0625 c 1.13427,-1.44447 3.07302,-4.22252 3.43072,-4.91589 0.3129,-0.60656 0.40896,-1.23067 0.33208,-2.15773 -0.099,-1.19416 -0.45195,-1.82433 -4.17776,-7.45982 l -4.06959,-6.15548 2.70032,-4.56179 c 3.66542,-6.19219 3.64572,-5.88019 0.72754,-11.52105 -1.19574,-2.31137 -2.10863,-4.26793 -2.02865,-4.3479 0.15339,-0.1534 2.98569,-0.22074 75.65117,-1.79874 25.23125,-0.54793 48.24885,-1.06804 51.15023,-1.15581 l 5.27524,-0.15959 1.13453,2.21065 c 3.7764,7.35837 4.22905,14.04911 1.33876,19.78846 -0.48747,0.96799 -1.00608,1.83401 -1.15247,1.92448 -0.14638,0.0905 -1.58356,0.37589 -3.19372,0.63427 -11.54928,1.85329 -126.83802,19.98844 -127.07046,19.98844 -0.19888,0 -0.21431,-0.10063 -0.0479,-0.3125 z"
       id="path124"
       transform="scale(0.26458333)" /><path
       style="opacity:1;fill:#d3bd9f;fill-opacity:1;stroke:#d3bd9f;stroke-width:0.918425;stroke-linecap:round;stroke-linejoin:round;stroke-dasharray:none;stroke-opacity:1"
       d="m 424.47185,450.26116 -0.96564,-0.65446 0.51684,-0.70405 c 0.33015,-0.44973 0.63381,-0.72824 0.84065,-0.77101 0.17809,-0.0368 8.1988,-1.30591 17.8238,-2.82019 9.625,-1.51427 38.875,-6.12182 65,-10.23898 26.125,-4.11717 47.51487,-7.47164 47.53305,-7.45439 0.0182,0.0172 -0.29119,0.372 -0.6875,0.78834 l -0.72055,0.75698 -10.0625,1.6942 c -11.60411,1.95376 -117.6871,19.93087 -118.0625,20.00719 -0.15514,0.0315 -0.61643,-0.19751 -1.21565,-0.60363 z"
       id="path125"
       transform="scale(0.26458333)" /><path
       style="fill:none;fill-opacity:1;stroke:#000000;stroke-width:2.25692;stroke-linecap:round;stroke-linejoin:round"
       d="m 92.593205,29.556525 c 0,0 -14.753342,-8.08199 -18.74628,-4.823894 -3.992919,3.258099 -11.117445,51.994601 25.204435,75.22288 0,0 -15.54722,-23.917592 -7.774834,-61.539272"
       id="path1" /><path
       style="fill:none;fill-opacity:1;stroke:#000000;stroke-width:2.25692;stroke-linecap:round;stroke-linejoin:round"
       d="m 81.720789,105.35717 c 0,0 -0.05613,4.23579 3.912945,4.74463 3.969083,0.50885 4.025212,-3.72694 4.025212,-3.72694 0,0 3.694666,4.49406 8.698293,3.66092 5.003641,-0.83315 4.073661,-4.43022 0.734834,-7.25102"
       id="path2-2" /><path
       style="fill:none;fill-opacity:1;stroke:#000000;stroke-width:2.25692;stroke-linecap:round;stroke-linejoin:round"
       d="m 81.869176,106.54632 c 0,0 -51.670167,4.52272 -59.998546,2.11719 0,0 -2.669076,2.48101 -2.685934,5.14463 -0.01688,2.66363 4.31138,14.78667 8.141309,17.21554 L 71.149549,125.8804 58.77591,138.68542 c 0,0 1.372268,4.25822 8.791932,7.76702 l 26.388044,-22.83225 53.082954,-9.00252 c 0,0 4.56096,-3.35002 0.48485,-9.45993 l -45.85305,1.01184"
       id="path3-7" /><path
       style="fill:none;fill-opacity:1;stroke:#000000;stroke-width:2.25692;stroke-linecap:round;stroke-linejoin:round"
       d="m 109.9703,105.98643 1.93216,3.71354 -1.69733,2.88102 2.41252,3.66366 -2.20603,3.01253 1.90676,1.24885"
       id="path4-6" /><path
       style="fill:none;fill-opacity:1;stroke:#000000;stroke-width:2.25692;stroke-linecap:round;stroke-linejoin:round"
       d="m 117.71438,44.646288 c 0,0 9.94373,33.555068 2.91883,61.104842"
       id="path5" /><path
       style="fill:none;fill-opacity:1;stroke:#000000;stroke-width:2.25692;stroke-linecap:round;stroke-linejoin:round"
       d="m 133.01673,52.195415 c 0,0 5.61725,33.857324 -1.94602,53.325385"
       id="path6-1" /><path
       style="fill:none;fill-opacity:1;stroke:#000000;stroke-width:2.25692;stroke-linecap:round;stroke-linejoin:round"
       d="m 89.954033,46.262589 c 0,0 6.490621,26.483103 33.178307,35.689842"
       id="path7-4" /><path
       style="fill:none;fill-opacity:1;stroke:#000000;stroke-width:2.25692;stroke-linecap:round;stroke-linejoin:round"
       d="m 90.663417,126.469 c 0,0 15.461183,1.91264 32.004933,-7.71825"
       id="path8-2"
       sodipodi:nodetypes="cc" /><path
       style="fill:none;fill-opacity:1;stroke:#000000;stroke-width:2.25692;stroke-linecap:round;stroke-linejoin:round"
       d="m 135.02105,77.396763 c 0.62875,-0.0524 5.56201,-0.160443 9.84904,1.679985 0,0 0.74707,16.712636 -3.50602,26.216912"
       id="path9-3"
       sodipodi:nodetypes="ccc" /><path
       style="fill:none;fill-opacity:1;stroke:#000000;stroke-width:2.25692;stroke-linecap:round;stroke-linejoin:round"
       d="m 70.632782,48.050772 c 0,0 -15.295107,33.75384 -18.691187,60.631648 0,0 -7.842827,-10.812953 -3.755402,-32.682555 0,0 -4.226196,6.953884 -3.274972,29.420265 0,0 -14.201647,-30.79024 4.441183,-54.822012 0,0 -8.167549,4.933722 -16.197101,17.538213 0,0 10.314461,-26.437299 38.926944,-40.455814"
       id="path11-2" /><path
       style="fill:none;fill-opacity:1;stroke:#000000;stroke-width:2.25692;stroke-linecap:round;stroke-linejoin:round"
       d="m 79.301838,24.262579 c 0,0 -1.621373,-1.692703 -3.796389,-2.758494 l -15.975805,2.230912 c 0,0 -12.099451,11.241672 -17.011026,23.311392 l 2.232421,2.439698"
       id="path12-2" /><path
       style="fill:none;fill-opacity:1;stroke:#000000;stroke-width:2.25692;stroke-linecap:round;stroke-linejoin:round"
       d="m 65.067112,90.667077 c 0,0 4.202783,-6.305617 14.271475,-0.312731 0,0 -6.580755,-7.048164 -14.271475,0.312731 z"
       id="path13-1" /><path
       style="fill:none;fill-opacity:1;stroke:#000000;stroke-width:2.25692;stroke-linecap:round;stroke-linejoin:round"
       d="m 66.622063,80.057244 c 0,0 -1.549642,3.375296 2.204651,8.016756"
       id="path14-6" /><path
       style="fill:none;fill-opacity:1;stroke:#000000;stroke-width:2.33834;stroke-linecap:round;stroke-linejoin:round"
       d="m 103.78043,90.030232 c 0,0 3.41598,-5.99317 14.46134,-1.496546 0,0 -7.35881,-6.505285 -14.46134,1.496546 z"
       id="path15-8" /><path
       style="fill:none;fill-opacity:1;stroke:#000000;stroke-width:2.33834;stroke-linecap:round;stroke-linejoin:round"
       d="m 101.25167,81.488142 c 0,0 -1.0114,4.26427 4.72889,6.545126"
       id="path16-5" /><path
       style="fill:none;fill-opacity:1;stroke:#000000;stroke-width:2.25692;stroke-linecap:round;stroke-linejoin:round"
       d="m 41.565032,95.118501 c 0,0 -1.34366,2.246901 -1.100295,14.088049"
       id="path17-7"
       sodipodi:nodetypes="cc" /><path
       style="fill:none;fill-opacity:1;stroke:#000000;stroke-width:2.25692;stroke-linecap:round;stroke-linejoin:round"
       d="m 67.517542,22.619541 c 0,0 -8.469093,-8.827364 -18.460559,-8.849169 -9.991457,-0.0218 -25.898357,39.959134 -31.121062,74.636279 -4.288272,28.472779 -6.526599,63.338989 23.822595,94.241829 0,0 -11.084346,-10.75621 -12.155933,-36.31205 0,0 5.792353,19.88513 29.605204,22.3576 0,0 -15.323411,-23.19337 -17.210081,-39.39227"
       id="path18-6"
       sodipodi:nodetypes="csscccc" /><path
       style="fill:none;fill-opacity:1;stroke:#000000;stroke-width:2.25692;stroke-linecap:round;stroke-linejoin:round"
       d="m 124.54883,27.62922 c 0,0 2.72615,-3.309819 7.0072,-5.013619 l 24.71869,28.016895 -7.23005,5.83102 z"
       id="path19-1" /><path
       style="fill:none;fill-opacity:1;stroke:#000000;stroke-width:2.25692;stroke-linecap:round;stroke-linejoin:round"
       d="m 134.27898,25.70187 v 0 c 0,0 14.30212,-12.118875 20.34337,-11.010169 7.09336,1.301793 39.88832,109.458039 -5.79721,155.662669 0,0 2.54169,-5.57974 0.35592,-27.04857 0,0 -0.53166,14.87834 -21.03338,31.7123 0,0 13.66594,-27.54116 16.14212,-59.93421"
       id="path20"
       sodipodi:nodetypes="ccscccc" /><path
       style="fill:none;fill-opacity:1;stroke:#000000;stroke-width:2.25692;stroke-linecap:round;stroke-linejoin:round"
       d="m 90.184102,28.324342 c 0,0 4.245315,-11.679208 35.591038,-1.962426"
       id="path21" /><path
       style="fill:none;fill-opacity:1;stroke:#000000;stroke-width:2.25692;stroke-linecap:round;stroke-linejoin:round"
       d="m 144.91907,82.599731 c 0,0 10.51988,-4.952923 2.66157,-27.956364"
       id="path22"
       sodipodi:nodetypes="cc" /><path
       style="fill:none;fill-opacity:1;stroke:#000000;stroke-width:2.25692;stroke-linecap:round;stroke-linejoin:round"
       d="m 53.033435,101.78638 c 0,0 0.395138,4.38608 2.112765,6.7115"
       id="path23" /><path
       style="fill:none;fill-opacity:1;stroke:#000000;stroke-width:2.25692;stroke-linecap:round;stroke-linejoin:round"
       d="m 88.43594,27.497063 c 0,0 -24.045171,-13.90702 4.035176,-26.3687113 0,0 -9.698902,21.8516613 -1.692487,25.1321583"
       id="path26" /><path
       style="fill:none;stroke:#000000;stroke-width:2.241;stroke-linecap:round;stroke-dasharray:none;stroke-opacity:1"
       d="m 144.56982,104.06781 c 0,0 0.0171,-6.275233 -0.0319,-13.175618"
       id="path2"
       sodipodi:nodetypes="cc" /></g></svg>
